<?xml version="1.0" encoding="UTF-8"?> <svg xmlns="http://www.w3.org/2000/svg" xmlns:xlink="http://www.w3.org/1999/xlink" id="Layer_1" data-name="Layer 1" viewBox="0 0 98.56 77.9"><defs><style>.cls-1{fill:url(#linear-gradient);}.cls-2{fill:url(#linear-gradient-2);}.cls-3{fill:url(#linear-gradient-3);}.cls-4{fill:url(#linear-gradient-4);}.cls-5{fill:url(#linear-gradient-5);}.cls-6,.cls-7,.cls-8{fill:none;stroke-miterlimit:10;}.cls-6{stroke-width:0.71px;stroke:url(#linear-gradient-6);}.cls-7,.cls-8{stroke-width:0.93px;}.cls-7{stroke:url(#linear-gradient-7);}.cls-8{stroke:url(#linear-gradient-8);}.cls-9{fill:url(#linear-gradient-9);}.cls-10{opacity:0.5;fill:url(#linear-gradient-10);}</style><linearGradient id="linear-gradient" x1="30.9" y1="26.96" x2="50.13" y2="26.96" gradientUnits="userSpaceOnUse"><stop offset="0" stop-color="#e54f25"></stop><stop offset="1" stop-color="#e57925"></stop></linearGradient><linearGradient id="linear-gradient-2" x1="44.07" y1="38.94" x2="60.93" y2="38.94" xlink:href="#linear-gradient"></linearGradient><linearGradient id="linear-gradient-3" x1="34.5" y1="51.9" x2="44.58" y2="51.9" xlink:href="#linear-gradient"></linearGradient><linearGradient id="linear-gradient-4" x1="30.9" y1="38.95" x2="74.12" y2="38.95" xlink:href="#linear-gradient"></linearGradient><linearGradient id="linear-gradient-5" x1="59.91" y1="50.46" x2="68.13" y2="50.46" xlink:href="#linear-gradient"></linearGradient><linearGradient id="linear-gradient-6" x1="13.56" y1="38.95" x2="91.46" y2="38.95" xlink:href="#linear-gradient"></linearGradient><linearGradient id="linear-gradient-7" x1="72.55" y1="11.45" x2="85.32" y2="11.45" xlink:href="#linear-gradient"></linearGradient><linearGradient id="linear-gradient-8" x1="0" y1="59.93" x2="23.42" y2="59.93" xlink:href="#linear-gradient"></linearGradient><linearGradient id="linear-gradient-9" x1="83.64" y1="56.15" x2="98.56" y2="56.15" xlink:href="#linear-gradient"></linearGradient><linearGradient id="linear-gradient-10" x1="0.34" y1="25.02" x2="27.49" y2="25.02" xlink:href="#linear-gradient"></linearGradient></defs><title>odoo_page</title><path class="cls-1" d="M31,21.3l2.88,5a.71.71,0,0,0,.45.34l2.68.67,9.22,9.22,1-1-9.36-9.36a.77.77,0,0,0-.34-.19L35,25.35l-2.45-4.29,2.1-2.1,4.3,2.45L39.56,24a.81.81,0,0,0,.19.34l9.36,9.36,1-1-9.21-9.21-.68-2.69a.7.7,0,0,0-.34-.45l-5-2.88a.71.71,0,0,0-.86.12l-2.88,2.87A.73.73,0,0,0,31,21.3Z"></path><path class="cls-2" d="M60.93,31.53,45.09,47.37l-1-1L59.91,30.51Z"></path><path class="cls-3" d="M42.32,47.93a.72.72,0,0,0-.62-.35H37.38a.72.72,0,0,0-.62.35l-2.16,3.6a.75.75,0,0,0,0,.74l2.16,3.6a.72.72,0,0,0,.62.35H41.7a.72.72,0,0,0,.62-.35l2.16-3.6a.75.75,0,0,0,0-.74Zm-1,6.85h-3.5L36.06,51.9,37.79,49h3.5L43,51.9Z"></path><path class="cls-4" d="M65.46,34.62a8.59,8.59,0,0,0,8.37-10.73.71.71,0,0,0-.87-.52.61.61,0,0,0-.33.19L68.14,28l-3.55-1.19L63.4,23.3l4.48-4.49a.71.71,0,0,0,0-1,.84.84,0,0,0-.33-.19,8.63,8.63,0,0,0-10.47,6.24A9.08,9.08,0,0,0,56.82,26,8.73,8.73,0,0,0,57,27.67L41.23,43.43a8.64,8.64,0,1,0,7,8.47A8,8,0,0,0,48,50.21l3.78-3.77,1.65,1.65a.72.72,0,0,0,1,0l.36-.36A.81.81,0,0,1,56,48.87h0l-.36.36a.72.72,0,0,0,0,1l8.59,8.59a5.81,5.81,0,0,0,8.25-8.18l0,0L63.81,42a.72.72,0,0,0-1,0l-.36.36a.81.81,0,0,1-1.14,0,.8.8,0,0,1,0-1.14h0l.36-.36a.72.72,0,0,0,0-1L60,38.22l3.77-3.78A8,8,0,0,0,65.46,34.62ZM68.29,59.1a4.41,4.41,0,0,1-1.53-.28l5.62-5.62a4.36,4.36,0,0,1-2.55,5.62A4.51,4.51,0,0,1,68.29,59.1ZM60.13,40.39a2.25,2.25,0,0,0,3.17,3.16l8.08,8.09a3.2,3.2,0,0,1,.25.27l-6.16,6.16a3.2,3.2,0,0,1-.27-.25l-8.09-8.09a2.25,2.25,0,0,0-3.17-3.16l-1.15-1.15L59,39.24ZM63,33.15,46.71,49.47a.71.71,0,0,0-.19.69,7.25,7.25,0,1,1-5.24-5.24.7.7,0,0,0,.68-.19L58.29,28.4a.72.72,0,0,0,.19-.68A7.17,7.17,0,0,1,63.65,19a7.51,7.51,0,0,1,2.22-.21l-3.8,3.8a.72.72,0,0,0-.17.74l1.44,4.32a.72.72,0,0,0,.45.45l4.32,1.44a.72.72,0,0,0,.74-.17l3.8-3.8c0,.14,0,.27,0,.41a7.16,7.16,0,0,1-7.13,7.2A7.35,7.35,0,0,1,63.72,33a.73.73,0,0,0-.69.18h0Z"></path><path class="cls-5" d="M68.13,53.55l-1,1-7.2-7.2,1-1Z"></path><circle class="cls-6" cx="52.51" cy="38.95" r="38.59"></circle><circle class="cls-7" cx="78.94" cy="11.45" r="5.92"></circle><circle class="cls-8" cx="11.71" cy="59.93" r="11.24"></circle><circle class="cls-9" cx="91.1" cy="56.15" r="7.46"></circle><circle class="cls-10" cx="13.92" cy="25.02" r="13.57"></circle></svg> 