<?xml version="1.0" encoding="UTF-8"?> <svg xmlns="http://www.w3.org/2000/svg" xmlns:xlink="http://www.w3.org/1999/xlink" id="Layer_1" data-name="Layer 1" viewBox="0 0 95.26 91.11"><defs><style>.cls-1{fill:url(#linear-gradient);}.cls-2,.cls-3,.cls-4{fill:none;stroke-miterlimit:10;}.cls-2{stroke-width:0.71px;stroke:url(#linear-gradient-2);}.cls-3,.cls-4{stroke-width:0.93px;}.cls-3{stroke:url(#linear-gradient-3);}.cls-4{stroke:url(#linear-gradient-4);}.cls-5{fill:url(#linear-gradient-5);}.cls-6{opacity:0.5;fill:url(#linear-gradient-6);}</style><linearGradient id="linear-gradient" x1="22.13" y1="38.95" x2="65.35" y2="38.95" gradientUnits="userSpaceOnUse"><stop offset="0" stop-color="#e54f25"></stop><stop offset="1" stop-color="#e57925"></stop></linearGradient><linearGradient id="linear-gradient-2" x1="4.79" y1="38.95" x2="82.69" y2="38.95" xlink:href="#linear-gradient"></linearGradient><linearGradient id="linear-gradient-3" x1="77.17" y1="70.54" x2="89.94" y2="70.54" xlink:href="#linear-gradient"></linearGradient><linearGradient id="linear-gradient-4" x1="71.84" y1="17.23" x2="95.26" y2="17.23" xlink:href="#linear-gradient"></linearGradient><linearGradient id="linear-gradient-5" x1="0" y1="15.29" x2="14.93" y2="15.29" xlink:href="#linear-gradient"></linearGradient><linearGradient id="linear-gradient-6" x1="22.02" y1="77.54" x2="49.16" y2="77.54" xlink:href="#linear-gradient"></linearGradient></defs><title>odoo_page</title><path class="cls-1" d="M50.52,60.66A14.88,14.88,0,0,1,40.4,34.82a15.16,15.16,0,0,1,4.84-3,8.31,8.31,0,0,1-.07,1.49l-.33.15a13.52,13.52,0,0,0,.82,24.94,13.35,13.35,0,0,0,4.77.87h0A13.5,13.5,0,0,0,62,38.63l-1.13-1.81-1.5,1.51-.33.33h0c-.22-1-.46-2.07-.68-3.11l-.39-1.74-.11-.52,3.07.72,2.27.54-.17.17-.22.21-.07.07-.06.08c-.79,1-.19,1.86.29,2.56l0,0,.07.1a15.26,15.26,0,0,1,2.31,6.93A14.83,14.83,0,0,1,50.52,60.66ZM42.29,46a8.24,8.24,0,0,1,.07-1.22c0-.1,0-.2,0-.3.27-.11.54-.24.8-.37A13.52,13.52,0,0,0,41.36,19.3a13.32,13.32,0,0,0-4.3-.71,13.59,13.59,0,0,0-10.19,4.56,13.74,13.74,0,0,0-1.14,16.42l1.16,1.76,1.47-1.52.31-.34,0,0,.15.61h0c0,.19.09.39.14.59.26,1,.53,2.1.78,3.13l.25,1-.11,0-1.69-.36L26.16,44h0l-1.48-.3.07-.07.28-.29a1.86,1.86,0,0,0,0-2.48l-.46-.67,0,0-.25-.35a14.42,14.42,0,0,1-1.45-3.24,14.87,14.87,0,0,1,14.24-19.3,14.37,14.37,0,0,1,4.24.63,14.88,14.88,0,0,1,1,28.16Z"></path><circle class="cls-2" cx="43.74" cy="38.95" r="38.59"></circle><circle class="cls-3" cx="83.55" cy="70.54" r="5.92"></circle><circle class="cls-4" cx="83.55" cy="17.23" r="11.24"></circle><circle class="cls-5" cx="7.46" cy="15.29" r="7.46"></circle><circle class="cls-6" cx="35.59" cy="77.54" r="13.57"></circle></svg> 