<?xml version="1.0" encoding="UTF-8"?> <svg xmlns="http://www.w3.org/2000/svg" xmlns:xlink="http://www.w3.org/1999/xlink" id="Layer_1" data-name="Layer 1" viewBox="0 0 89.34 91.11"><defs><style>.cls-1{fill:url(#linear-gradient);}.cls-2{fill:url(#linear-gradient-2);}.cls-3{fill:url(#linear-gradient-3);}.cls-4{fill:url(#linear-gradient-4);}.cls-5{fill:url(#linear-gradient-5);}.cls-6{fill:url(#linear-gradient-6);}.cls-7{fill:url(#linear-gradient-7);}.cls-8{fill:url(#linear-gradient-8);}.cls-10,.cls-11,.cls-9{fill:none;stroke-miterlimit:10;}.cls-9{stroke-width:0.71px;stroke:url(#linear-gradient-9);}.cls-10,.cls-11{stroke-width:0.93px;}.cls-10{stroke:url(#linear-gradient-10);}.cls-11{stroke:url(#linear-gradient-11);}.cls-12{fill:url(#linear-gradient-12);}.cls-13{opacity:0.5;fill:url(#linear-gradient-13);}</style><linearGradient id="linear-gradient" x1="45.02" y1="58.6" x2="50.76" y2="58.6" gradientUnits="userSpaceOnUse"><stop offset="0" stop-color="#e54f25"></stop><stop offset="1" stop-color="#e57925"></stop></linearGradient><linearGradient id="linear-gradient-2" x1="36.31" y1="38.95" x2="59.67" y2="38.95" xlink:href="#linear-gradient"></linearGradient><linearGradient id="linear-gradient-3" x1="26.11" y1="28.86" x2="35.34" y2="28.86" xlink:href="#linear-gradient"></linearGradient><linearGradient id="linear-gradient-4" x1="60.65" y1="49.04" x2="69.87" y2="49.04" xlink:href="#linear-gradient"></linearGradient><linearGradient id="linear-gradient-5" x1="26.02" y1="48.84" x2="35.21" y2="48.84" xlink:href="#linear-gradient"></linearGradient><linearGradient id="linear-gradient-6" x1="60.77" y1="29.05" x2="69.96" y2="29.05" xlink:href="#linear-gradient"></linearGradient><linearGradient id="linear-gradient-7" x1="45.2" y1="19.31" x2="50.97" y2="19.31" xlink:href="#linear-gradient"></linearGradient><linearGradient id="linear-gradient-8" x1="43.19" y1="38.91" x2="52.87" y2="38.91" xlink:href="#linear-gradient"></linearGradient><linearGradient id="linear-gradient-9" x1="9.04" y1="38.95" x2="86.94" y2="38.95" xlink:href="#linear-gradient"></linearGradient><linearGradient id="linear-gradient-10" x1="5.33" y1="25.28" x2="18.1" y2="25.28" xlink:href="#linear-gradient"></linearGradient><linearGradient id="linear-gradient-11" x1="0" y1="76.98" x2="23.42" y2="76.98" xlink:href="#linear-gradient"></linearGradient><linearGradient id="linear-gradient-12" x1="74.42" y1="16.19" x2="89.34" y2="16.19" xlink:href="#linear-gradient"></linearGradient><linearGradient id="linear-gradient-13" x1="56.85" y1="77.54" x2="83.99" y2="77.54" xlink:href="#linear-gradient"></linearGradient></defs><title>odoo_page</title><path class="cls-1" d="M47.42,63.28l-.4-.13a2.83,2.83,0,0,1-2-2.47,2.75,2.75,0,0,1,1.64-2.8.56.56,0,0,0,.4-.63c0-1.08,0-2.15,0-3.23a.37.37,0,0,1,0-.11h1.49c0,.12,0,.26,0,.39,0,1,0,2,0,3a.56.56,0,0,0,.23.43,2.84,2.84,0,0,1-.44,5.46l-.08.05Zm.51-4.09a1.26,1.26,0,1,0,1.28,1.26A1.31,1.31,0,0,0,47.93,59.19Z"></path><path class="cls-2" d="M51.48,30.56l1-1a1.52,1.52,0,0,1,2.37-.06L57.43,32a1.45,1.45,0,0,1,0,2.32c-.32.33-.67.62-1,.93l.07.13H58a1.46,1.46,0,0,1,1.67,1.65c0,1.17,0,2.34.05,3.52A1.46,1.46,0,0,1,58.1,42.2c-.5,0-1,0-1.5,0l0,.13,1,.94a1.55,1.55,0,0,1,0,2.41c-.84.84-1.67,1.69-2.52,2.52a1.49,1.49,0,0,1-2.3,0L51.6,47.16v1.6A1.47,1.47,0,0,1,50,50.35l-3.85,0a1.44,1.44,0,0,1-1.53-1.51c0-.5,0-1,0-1.66l-1.13,1.12a1.51,1.51,0,0,1-2.34,0l-2.61-2.49a1.45,1.45,0,0,1,0-2.32c.32-.33.66-.64,1.1-1.07H38.21c-1.32,0-1.82-.46-1.84-1.77l-.06-3.42a1.47,1.47,0,0,1,1.53-1.62c.5,0,1,0,1.52,0l.07-.12-1-1a1.44,1.44,0,0,1,0-2.31L41,29.68a1.51,1.51,0,0,1,2.28-.05c.36.33.71.67,1.15,1.1,0-.52,0-.93,0-1.34,0-1.29.52-1.83,1.79-1.84s2.38,0,3.57,0a1.42,1.42,0,0,1,1.58,1.54c0,.49,0,1,0,1.47ZM46,29.08V30.2c0,1.77.09,1.46-1.27,2.08a.94.94,0,0,1-1.19-.21c-.45-.45-.91-.87-1.33-1.27l-2.64,2.63c.2.22.42.47.65.7,1,1,1.3.91.58,2.39a.92.92,0,0,1-.92.65H38V40.9a7.54,7.54,0,0,0,1.17,0,1.56,1.56,0,0,1,2,1.19c.19.64.26.81-.23,1.3s-.87.85-1.32,1.28l2.8,2.67c.29-.32.57-.58.8-.88a1.54,1.54,0,0,1,2.27-.54c.57.34.73.4.73,1.06s0,1.22,0,1.79H50V47.41c0-1-.18-1.27,1.06-1.68a.68.68,0,0,0,.21-.1.88.88,0,0,1,1.17.16c.45.45.93.89,1.37,1.31l2.66-2.65c-.26-.25-.53-.54-.81-.81-1-1-1-1-.53-2.28a1,1,0,0,1,1-.7c.63,0,1.25,0,1.85,0V37H56.89c-1.65.05-1.53,0-2-1.2-.25-.59-.26-.79.19-1.23s.9-.87,1.36-1.32l-2.79-2.65c-.28.31-.52.58-.78.84-1.08,1.08-.92,1.11-2.34.53a1,1,0,0,1-.7-1c0-.61,0-1.22,0-1.86l-.39,0Z"></path><path class="cls-3" d="M31,30.2a3,3,0,0,1-3.34.41,2.8,2.8,0,0,1-1.38-3.43,2.88,2.88,0,0,1,3.35-1.83,2.77,2.77,0,0,1,2.23,2.93.82.82,0,0,0,.46.9c1,.62,2,1.28,3,1.94l-.84,1.31Zm-2-.83a1.26,1.26,0,1,0-1.32-1.26A1.28,1.28,0,0,0,29,29.37Z"></path><path class="cls-4" d="M60.65,46.77l.84-1.31,3.42,2.17A10.38,10.38,0,0,1,66.42,47a2.83,2.83,0,0,1,2.74,4.63,2.93,2.93,0,0,1-3.34.72,2.75,2.75,0,0,1-1.69-2.85.67.67,0,0,0-.37-.76C62.72,48.12,61.71,47.45,60.65,46.77ZM67,51a1.26,1.26,0,1,0-1.33-1.26A1.29,1.29,0,0,0,67,51Z"></path><path class="cls-5" d="M34.37,45.24l.84,1.32c-.88.56-1.71,1.13-2.58,1.64a1.4,1.4,0,0,0-.9,1.51,2.62,2.62,0,0,1-2.15,2.65,2.89,2.89,0,0,1-3.23-1.42,2.82,2.82,0,0,1,.5-3.33,2.93,2.93,0,0,1,3.54-.42l.45.29Zm-4.16,4.43A1.3,1.3,0,0,0,29,48.35a1.26,1.26,0,1,0-.16,2.52A1.29,1.29,0,0,0,30.21,49.67Z"></path><path class="cls-6" d="M65.14,30.41l-3.53,2.25-.84-1.32.93-.6c.61-.39,1.21-.82,1.85-1.17a1.09,1.09,0,0,0,.68-1.24,2.73,2.73,0,0,1,2.07-2.78,2.91,2.91,0,0,1,3.28,1.32,2.83,2.83,0,0,1-.44,3.41,2.94,2.94,0,0,1-3.59.4C65.41,30.6,65.29,30.5,65.14,30.41Zm2-3.39a1.26,1.26,0,1,0,1.3,1.29A1.3,1.3,0,0,0,67.1,27Z"></path><path class="cls-7" d="M48.85,24H47.33c0-.92,0-1.8,0-2.68,0-.67,0-1.17-.79-1.55a2.62,2.62,0,0,1-1.2-3.23,2.9,2.9,0,0,1,5.58.36A2.79,2.79,0,0,1,49.32,20a.59.59,0,0,0-.41.67c0,1.06,0,2.12,0,3.18A1.47,1.47,0,0,1,48.85,24Zm-.76-5.31a1.26,1.26,0,1,0-1.32-1.27A1.3,1.3,0,0,0,48.09,18.71Z"></path><path class="cls-8" d="M48.05,34.16a4.75,4.75,0,1,1-4.86,4.73A4.74,4.74,0,0,1,48.05,34.16Zm0,7.93a3.19,3.19,0,1,0-3.26-3.2A3.21,3.21,0,0,0,48,42.09Z"></path><circle class="cls-9" cx="47.99" cy="38.95" r="38.59"></circle><circle class="cls-10" cx="11.71" cy="25.28" r="5.92"></circle><circle class="cls-11" cx="11.71" cy="76.98" r="11.24"></circle><circle class="cls-12" cx="81.88" cy="16.19" r="7.46"></circle><circle class="cls-13" cx="70.42" cy="77.54" r="13.57"></circle></svg> 