<?xml version="1.0" encoding="UTF-8"?> <svg xmlns="http://www.w3.org/2000/svg" xmlns:xlink="http://www.w3.org/1999/xlink" id="Layer_1" data-name="Layer 1" viewBox="0 0 97.58 91.11"><defs><style>.cls-1{fill:url(#linear-gradient);}.cls-2{fill:url(#linear-gradient-2);}.cls-3{fill:url(#linear-gradient-3);}.cls-4{fill:url(#linear-gradient-4);}.cls-5{fill:url(#linear-gradient-5);}.cls-6{fill:url(#linear-gradient-6);}.cls-7{fill:url(#linear-gradient-7);}.cls-8{fill:url(#linear-gradient-8);}.cls-9{fill:url(#linear-gradient-9);}.cls-10,.cls-11,.cls-12{fill:none;stroke-miterlimit:10;}.cls-10{stroke-width:0.71px;stroke:url(#linear-gradient-10);}.cls-11,.cls-12{stroke-width:0.93px;}.cls-11{stroke:url(#linear-gradient-11);}.cls-12{stroke:url(#linear-gradient-12);}.cls-13{fill:url(#linear-gradient-13);}.cls-14{opacity:0.5;fill:url(#linear-gradient-14);}</style><linearGradient id="linear-gradient" x1="64.38" y1="58.45" x2="68.49" y2="58.45" gradientUnits="userSpaceOnUse"><stop offset="0" stop-color="#e54f25"></stop><stop offset="1" stop-color="#e57925"></stop></linearGradient><linearGradient id="linear-gradient-2" x1="26.06" y1="19.44" x2="30.16" y2="19.44" xlink:href="#linear-gradient"></linearGradient><linearGradient id="linear-gradient-3" x1="29.48" y1="39.29" x2="65.07" y2="39.29" xlink:href="#linear-gradient"></linearGradient><linearGradient id="linear-gradient-4" x1="27.43" y1="24.23" x2="28.8" y2="24.23" xlink:href="#linear-gradient"></linearGradient><linearGradient id="linear-gradient-5" x1="27.43" y1="27.66" x2="28.8" y2="27.66" xlink:href="#linear-gradient"></linearGradient><linearGradient id="linear-gradient-6" x1="27.43" y1="31.08" x2="28.8" y2="31.08" xlink:href="#linear-gradient"></linearGradient><linearGradient id="linear-gradient-7" x1="65.75" y1="46.82" x2="67.12" y2="46.82" xlink:href="#linear-gradient"></linearGradient><linearGradient id="linear-gradient-8" x1="65.75" y1="50.24" x2="67.12" y2="50.24" xlink:href="#linear-gradient"></linearGradient><linearGradient id="linear-gradient-9" x1="65.75" y1="53.66" x2="67.12" y2="53.66" xlink:href="#linear-gradient"></linearGradient><linearGradient id="linear-gradient-10" x1="8.33" y1="38.95" x2="86.22" y2="38.95" xlink:href="#linear-gradient"></linearGradient><linearGradient id="linear-gradient-11" x1="61.64" y1="7.21" x2="74.41" y2="7.21" xlink:href="#linear-gradient"></linearGradient><linearGradient id="linear-gradient-12" x1="74.15" y1="60.5" x2="97.58" y2="60.5" xlink:href="#linear-gradient"></linearGradient><linearGradient id="linear-gradient-13" x1="0" y1="37.92" x2="14.93" y2="37.92" xlink:href="#linear-gradient"></linearGradient><linearGradient id="linear-gradient-14" x1="18.65" y1="77.54" x2="45.79" y2="77.54" xlink:href="#linear-gradient"></linearGradient></defs><title>odoo_page</title><path class="cls-1" d="M66.43,56.4a2.05,2.05,0,1,0,2.06,2.05A2.05,2.05,0,0,0,66.43,56.4Zm0,2.74a.69.69,0,0,1-.68-.69.69.69,0,0,1,1.37,0A.69.69,0,0,1,66.43,59.14Z"></path><path class="cls-2" d="M30.16,19.44a2.05,2.05,0,1,0-2.05,2.06A2.05,2.05,0,0,0,30.16,19.44Zm-2.73,0a.68.68,0,0,1,.68-.68.69.69,0,1,1-.68.68Z"></path><path class="cls-3" d="M62.82,44.51l-1.35-2.7a13.93,13.93,0,0,0,.73-1.76l2.87-.95V31.27l-2.87-1a14.44,14.44,0,0,0-.73-1.75l1.35-2.71-5.53-5.53-2.71,1.35a14.44,14.44,0,0,0-1.75-.73l-1-2.86H44l-.95,2.86a14.57,14.57,0,0,0-1.76.73l-2.7-1.35-5.54,5.53,1.35,2.71a16.24,16.24,0,0,0-.73,1.75l-2.86,1V39.1l2.86.95a13.68,13.68,0,0,0,.73,1.74l-.88,1.61H29.48V57.08h4.79V55h5.19l2,2h3.71v.69a2.74,2.74,0,0,0,5.47,0v-.69h4.8a2.05,2.05,0,0,0,2-2A2.09,2.09,0,0,0,57,53.66a2,2,0,0,0,0-2.74,2.1,2.1,0,0,0,.5-1.05Zm-27-3a13.53,13.53,0,0,1-.92-2.18L34.8,39l-2.58-.86V32.26l2.58-.87.1-.33a13.53,13.53,0,0,1,.92-2.18l.16-.31-1.22-2.45L38.9,22l2.44,1.23.31-.17a14.42,14.42,0,0,1,2.18-.91l.34-.1L45,19.44h5.86L51.75,22l.33.1a14.42,14.42,0,0,1,2.18.91l.31.16L57,22l4.14,4.14-1.22,2.45.16.31A14.42,14.42,0,0,1,61,31.06l.1.33,2.59.87v5.85L61.12,39l-.11.34a14.42,14.42,0,0,1-.91,2.18l-.16.31,1.22,2.44-4,4.08a1.47,1.47,0,0,0-.1-.13,2.09,2.09,0,0,0,.53-1.37,2.05,2.05,0,0,0-1.87-2,12.32,12.32,0,1,0-15.45,0H34.37L36,41.81Zm20.35,10.8a.69.69,0,0,1-.68.69H50a.68.68,0,0,1-.68-.69.67.67,0,0,1,.68-.68h5.48A.68.68,0,0,1,56.17,52.29ZM46.31,35.18h3.3l1.08-1.08v-3a1.37,1.37,0,0,1,1.37,1.37v3.13l-2.33,2.34H46.19l-2.34-2.34V32.45a1.37,1.37,0,0,1,1.37-1.37v3Zm.28,4.11h2.74V42H46.59Zm4.1-.4,2.74-2.74v-3.7a2.74,2.74,0,0,0-2.74-2.74H49.33v3.82l-.29.29H46.87l-.28-.29V29.71H45.22a2.74,2.74,0,0,0-2.74,2.74v3.7l2.74,2.74V42H43.57l0,0a8.21,8.21,0,1,1,8.94,0H50.69Zm6.85-3.71a9.58,9.58,0,1,0-15,7.89l-1,1a10.95,10.95,0,1,1,13.23-.29,2.07,2.07,0,0,0-.68-1.22A9.53,9.53,0,0,0,57.54,35.18Zm-2,11a.69.69,0,0,1,.68.69.68.68,0,0,1-.68.68H50a.67.67,0,0,1-.68-.68.68.68,0,0,1,.68-.69ZM50,50.24a.69.69,0,0,1,0-1.37h5.48a.69.69,0,0,1,0,1.37ZM32.9,55.71h-2v-11h2Zm9.18,0-2-2.05H34.27V46.13H41.4l2.73-2.73h8.62a.68.68,0,0,1,0,1.36H45.62L42.68,47.7l1,1,1.57-1.57v8.61ZM48,59.14a1.37,1.37,0,0,1-1.37-1.37V46.13h1.49a2.27,2.27,0,0,0-.12.69,2,2,0,0,0,.53,1.37,2,2,0,0,0,0,2.73,2,2,0,0,0,0,2.74,2,2,0,0,0,.84,3.3v.81A1.38,1.38,0,0,1,48,59.14Zm7.53-3.43H50a.68.68,0,0,1,0-1.36h5.48a.68.68,0,0,1,0,1.36Z"></path><path class="cls-4" d="M27.43,23.55H28.8v1.37H27.43Z"></path><path class="cls-5" d="M27.43,27H28.8v1.37H27.43Z"></path><path class="cls-6" d="M27.43,30.39H28.8v1.37H27.43Z"></path><path class="cls-7" d="M65.75,46.13h1.37V47.5H65.75Z"></path><path class="cls-8" d="M65.75,49.55h1.37v1.37H65.75Z"></path><path class="cls-9" d="M65.75,53h1.37v1.37H65.75Z"></path><circle class="cls-10" cx="47.27" cy="38.95" r="38.59"></circle><circle class="cls-11" cx="68.03" cy="7.21" r="5.92"></circle><circle class="cls-12" cx="85.87" cy="60.5" r="11.24"></circle><circle class="cls-13" cx="7.46" cy="37.92" r="7.46"></circle><circle class="cls-14" cx="32.22" cy="77.54" r="13.57"></circle></svg> 