<?xml version="1.0" encoding="UTF-8"?> <svg xmlns="http://www.w3.org/2000/svg" xmlns:xlink="http://www.w3.org/1999/xlink" id="Layer_1" data-name="Layer 1" viewBox="0 0 95.41 77.9"><defs><style>.cls-1{fill:url(#linear-gradient);}.cls-2{fill:url(#linear-gradient-2);}.cls-3{fill:url(#linear-gradient-3);}.cls-4,.cls-5,.cls-6{fill:none;stroke-miterlimit:10;}.cls-4{stroke-width:0.71px;stroke:url(#linear-gradient-4);}.cls-5,.cls-6{stroke-width:0.93px;}.cls-5{stroke:url(#linear-gradient-5);}.cls-6{stroke:url(#linear-gradient-6);}.cls-7{fill:url(#linear-gradient-7);}.cls-8{opacity:0.5;fill:url(#linear-gradient-8);}</style><linearGradient id="linear-gradient" x1="20.73" y1="38.95" x2="63.95" y2="38.95" gradientUnits="userSpaceOnUse"><stop offset="0" stop-color="#e54f25"></stop><stop offset="1" stop-color="#e57925"></stop></linearGradient><linearGradient id="linear-gradient-2" x1="44.03" y1="59.71" x2="45.71" y2="59.71" xlink:href="#linear-gradient"></linearGradient><linearGradient id="linear-gradient-3" x1="41.5" y1="28.32" x2="48.25" y2="28.32" xlink:href="#linear-gradient"></linearGradient><linearGradient id="linear-gradient-4" x1="3.39" y1="38.95" x2="81.29" y2="38.95" xlink:href="#linear-gradient"></linearGradient><linearGradient id="linear-gradient-5" x1="1.08" y1="15.32" x2="13.85" y2="15.32" xlink:href="#linear-gradient"></linearGradient><linearGradient id="linear-gradient-6" x1="71.98" y1="53.78" x2="95.41" y2="53.78" xlink:href="#linear-gradient"></linearGradient><linearGradient id="linear-gradient-7" x1="0" y1="58.87" x2="14.93" y2="58.87" xlink:href="#linear-gradient"></linearGradient><linearGradient id="linear-gradient-8" x1="62.66" y1="19.06" x2="89.81" y2="19.06" xlink:href="#linear-gradient"></linearGradient></defs><title>odoo_page</title><path class="cls-1" d="M48.42,60.55l-.16-.12a.84.84,0,0,1,.45-1.56H62.23V34.23H54.51a.56.56,0,0,0-.58.35c-.23.44-.48.86-.73,1.28a.88.88,0,0,1-1.38.37c-.57-.32-1.13-.67-1.72-1a.59.59,0,0,0-.47,0,9.8,9.8,0,0,0-1.13.66.5.5,0,0,0-.23.37c0,.64,0,1.29,0,1.94s-.29,1.05-1.08,1.06H45.75v3.88h6.4c.92,0,1.17.25,1.17,1.18v4.37l.44,0c1.21,0,2.42,0,3.62,0,.68,0,1,.31,1,1v4.81a.86.86,0,0,1-1,1H47.54c-.66,0-1-.33-1-1,0-1.57,0-3.15,0-4.72,0-.72.3-1,1-1,1.19,0,2.39,0,3.58,0h.44V44.89H38.15v3.85h3.13c.35,0,.7,0,1,0a.82.82,0,0,1,.85.82q0,2.55,0,5.1c0,.53-.38.83-1,.83H32.39c-.7,0-1-.31-1-1,0-1.57,0-3.15,0-4.72,0-.72.31-1,1-1,1.32,0,2.64,0,4,0V44.19c0-.72.31-1,1-1,2.17,0,4.33,0,6.53,0V39.29H42.51a.89.89,0,0,1-1-1c0-.65,0-1.29,0-1.94a.44.44,0,0,0-.3-.47,6.79,6.79,0,0,1-1-.59.47.47,0,0,0-.61,0c-.55.33-1.11.65-1.67,1a.86.86,0,0,1-1.32-.34c-.28-.47-.54-1-.83-1.42a.54.54,0,0,0-.37-.25H27.62l-.12,0V51.79c0,.92-.26,1.16-1.19,1.17a8.55,8.55,0,0,0-1.43,0,2.93,2.93,0,0,0-2.44,3.16,3,3,0,0,0,2.95,2.69H40.92c.66,0,1.13.43,1,1-.08.27-.37.49-.57.73H24.8a.6.6,0,0,0-.11-.06,4.71,4.71,0,0,1-4-4.82c0-6.2,0-12.4,0-18.6,0-1.66,0-3.32,0-5a4.53,4.53,0,0,1,1.91-3.72,5.82,5.82,0,0,1,4.14-.87.78.78,0,0,1,.69.83c0,.35,0,.7,0,1.06V32.5h7.12l-.36-.63c-.43-.75-.34-1.12.4-1.55.52-.3,1-.61,1.57-.9a.42.42,0,0,0,.24-.47,7.57,7.57,0,0,1,0-1.26.41.41,0,0,0-.24-.47c-.59-.33-1.18-.66-1.76-1A.82.82,0,0,1,34.14,25q1.23-2.16,2.48-4.31a.84.84,0,0,1,1.23-.32c.49.27,1,.54,1.46.85a.78.78,0,0,0,1.11,0,2.63,2.63,0,0,1,.77-.43.46.46,0,0,0,.32-.51c0-.66,0-1.32,0-2a.84.84,0,0,1,.94-.94c1.61,0,3.23,0,4.85,0a.85.85,0,0,1,1,1q0,1,0,2a.41.41,0,0,0,.27.45,4.93,4.93,0,0,1,1,.59.53.53,0,0,0,.68,0c.53-.33,1.08-.64,1.64-.95a.85.85,0,0,1,1.31.35q1.21,2.1,2.42,4.2a.83.83,0,0,1-.34,1.28c-.53.32-1.06.64-1.6.93a.55.55,0,0,0-.36.65c.06.38,0,.78,0,1.18a.58.58,0,0,0,.22.41c.54.35,1.11.65,1.67,1a.88.88,0,0,1,.38,1.37l-.44.8c2.61,0,5.14,0,7.67,0a1.14,1.14,0,0,1,1.15.6V60.55Zm5.33-29.06-1.76-1a1,1,0,0,1-.48-1,18.26,18.26,0,0,0,0-2.22c0-.6,0-.81.57-1.13l1.67-1-1.68-2.92c-.61.35-1.18.67-1.75,1a1,1,0,0,1-1.2-.1A18.48,18.48,0,0,0,47.25,22c-.52-.26-.68-.43-.68-1s0-1.29,0-2H43.19v2c0,.57-.18.76-.69,1a16.17,16.17,0,0,0-1.85,1.07,1,1,0,0,1-1.27.07l-1.7-1L36,25.14l1.75,1a1,1,0,0,1,.5,1,17.64,17.64,0,0,0,0,2.18c0,.69,0,.87-.63,1.23L36,31.5l1.69,2.92,1.72-1a.93.93,0,0,1,1.23.09,15.76,15.76,0,0,0,1.77,1c.64.32.78.46.78,1.19v1.82h3.38V35.67c0-.64.14-.81.71-1.09a13.84,13.84,0,0,0,1.75-1c.62-.43.78-.47,1.44-.09l1.6.92,1.57-2.7ZM25.8,29.19a3,3,0,0,0-3.36,3q0,9.95,0,19.9a.76.76,0,0,0,0,.16,11.63,11.63,0,0,1,1.61-.74,15.4,15.4,0,0,1,1.74-.29ZM41.48,50.45H33.1v3.33h8.38Zm15.21,0h-8.4v3.33h8.39c0-.09,0-.16,0-.22Z"></path><path class="cls-2" d="M44.63,60.55l-.21-.14a.8.8,0,0,1-.35-.95.84.84,0,0,1,1.6,0,.82.82,0,0,1-.34,1l-.2.14Z"></path><path class="cls-3" d="M41.5,28.3a3.38,3.38,0,1,1,3.37,3.39A3.39,3.39,0,0,1,41.5,28.3Zm5.07,0A1.69,1.69,0,1,0,44.88,30,1.71,1.71,0,0,0,46.57,28.31Z"></path><circle class="cls-4" cx="42.34" cy="38.95" r="38.59"></circle><circle class="cls-5" cx="7.46" cy="15.32" r="5.92"></circle><circle class="cls-6" cx="83.7" cy="53.78" r="11.24"></circle><circle class="cls-7" cx="7.46" cy="58.87" r="7.46"></circle><circle class="cls-8" cx="76.23" cy="19.06" r="13.57"></circle></svg> 